<?xml version="1.0" encoding="UTF-8"?>
<svg xmlns="http://www.w3.org/2000/svg" xmlns:xlink="http://www.w3.org/1999/xlink" viewBox="0 0 96 96" width="96px" height="96px">
<g id="surface101251696">
<path style=" stroke:none;fill-rule:nonzero;fill:rgb(12.156863%,12.941177%,16.862746%);fill-opacity:1;" d="M 64 76 L 32 76 C 29.789062 76 28 74.210938 28 72 L 28 24 C 28 21.789062 29.789062 20 32 20 L 64 20 C 66.210938 20 68 21.789062 68 24 L 68 72 C 68 74.210938 66.210938 76 64 76 Z M 64 76 "/>
<path style=" stroke:none;fill-rule:nonzero;fill:rgb(45.882353%,45.882353%,45.882353%);fill-opacity:1;" d="M 60 36 L 36 36 C 34.894531 36 34 35.105469 34 34 L 34 26 C 34 24.894531 34.894531 24 36 24 L 60 24 C 61.105469 24 62 24.894531 62 26 L 62 34 C 62 35.105469 61.105469 36 60 36 Z M 60 36 "/>
<path style=" stroke:none;fill-rule:nonzero;fill:rgb(87.843138%,87.843138%,87.843138%);fill-opacity:1;" d="M 40 44 C 40 46.210938 38.210938 48 36 48 C 33.789062 48 32 46.210938 32 44 C 32 41.789062 33.789062 40 36 40 C 38.210938 40 40 41.789062 40 44 Z M 40 44 "/>
<path style=" stroke:none;fill-rule:nonzero;fill:rgb(87.843138%,87.843138%,87.843138%);fill-opacity:1;" d="M 52 44 C 52 46.210938 50.210938 48 48 48 C 45.789062 48 44 46.210938 44 44 C 44 41.789062 45.789062 40 48 40 C 50.210938 40 52 41.789062 52 44 Z M 52 44 "/>
<path style=" stroke:none;fill-rule:nonzero;fill:rgb(100%,67.058825%,25.098041%);fill-opacity:1;" d="M 64 44 C 64 46.210938 62.210938 48 60 48 C 57.789062 48 56 46.210938 56 44 C 56 41.789062 57.789062 40 60 40 C 62.210938 40 64 41.789062 64 44 Z M 64 44 "/>
<path style=" stroke:none;fill-rule:nonzero;fill:rgb(87.843138%,87.843138%,87.843138%);fill-opacity:1;" d="M 40 56 C 40 58.210938 38.210938 60 36 60 C 33.789062 60 32 58.210938 32 56 C 32 53.789062 33.789062 52 36 52 C 38.210938 52 40 53.789062 40 56 Z M 40 56 "/>
<path style=" stroke:none;fill-rule:nonzero;fill:rgb(87.843138%,87.843138%,87.843138%);fill-opacity:1;" d="M 52 56 C 52 58.210938 50.210938 60 48 60 C 45.789062 60 44 58.210938 44 56 C 44 53.789062 45.789062 52 48 52 C 50.210938 52 52 53.789062 52 56 Z M 52 56 "/>
<path style=" stroke:none;fill-rule:nonzero;fill:rgb(100%,67.058825%,25.098041%);fill-opacity:1;" d="M 64 56 C 64 58.210938 62.210938 60 60 60 C 57.789062 60 56 58.210938 56 56 C 56 53.789062 57.789062 52 60 52 C 62.210938 52 64 53.789062 64 56 Z M 64 56 "/>
<path style=" stroke:none;fill-rule:nonzero;fill:rgb(100%,67.058825%,25.098041%);fill-opacity:1;" d="M 64 68 C 64 70.210938 62.210938 72 60 72 C 57.789062 72 56 70.210938 56 68 C 56 65.789062 57.789062 64 60 64 C 62.210938 64 64 65.789062 64 68 Z M 64 68 "/>
<path style=" stroke:none;fill-rule:nonzero;fill:rgb(87.843138%,87.843138%,87.843138%);fill-opacity:1;" d="M 48 72 L 36 72 C 33.789062 72 32 70.210938 32 68 C 32 65.789062 33.789062 64 36 64 L 48 64 C 50.210938 64 52 65.789062 52 68 C 52 70.210938 50.210938 72 48 72 Z M 48 72 "/>
</g>
</svg>
